<svg width="861" height="201" viewBox="0 0 861 201" fill="none" xmlns="http://www.w3.org/2000/svg">
<g clip-path="url(#clip0_1_6)">
<g clip-path="url(#clip1_1_6)">
<path d="M117.086 135.073L112.907 169.763C120.682 169.514 128.334 167.75 135.433 164.57C136.856 163.929 138.085 162.924 138.996 161.657C139.907 160.39 140.468 158.904 140.622 157.351C140.775 155.798 140.517 154.232 139.872 152.81C139.227 151.389 138.219 150.163 136.949 149.255L117.086 135.073ZM135.431 35.4283C128.332 32.2491 120.681 30.4858 112.907 30.2372L117.086 64.9274L136.947 50.7427C137.344 50.4578 137.717 50.141 138.063 49.7954C139.078 48.7795 139.832 47.5322 140.26 46.1607C140.687 44.7892 140.775 43.3344 140.516 41.9214C140.257 40.5083 139.659 39.1792 138.773 38.0482C137.888 36.9173 136.741 36.0182 135.431 35.4283ZM50.4968 58.3636C48.4888 57.3039 46.1511 57.054 43.9646 57.6654C41.778 58.2768 39.909 59.7029 38.7419 61.6504C31.7793 73.2306 28.1008 86.4879 28.1008 100C28.1008 113.512 31.7793 126.769 38.7419 138.35C39.9093 140.297 41.7789 141.723 43.9659 142.334C46.1528 142.945 48.4908 142.695 50.4987 141.635L103.841 113.394C105.264 112.637 106.454 111.507 107.283 110.125C108.112 108.743 108.549 107.162 108.548 105.55V94.4461C108.549 92.8345 108.112 91.2527 107.283 89.8707C106.454 88.4887 105.264 87.3586 103.841 86.6017L50.4968 58.3636ZM100.67 25.056C99.7403 24.3366 98.677 23.8091 97.5418 23.5041C96.4066 23.1991 95.2221 23.1227 94.0571 23.2792C81.0599 25.0571 68.9989 31.0308 59.7081 40.2919C56.8642 43.1486 54.3162 46.2853 52.1029 49.6542C52.9541 49.9523 53.8326 50.0896 54.6485 50.521L107.991 78.7611C108.042 78.7886 108.071 78.8415 108.132 78.8631C108.93 77.3079 109.428 75.6057 109.23 73.8426L104.069 31.0276C103.927 29.8582 103.555 28.7287 102.973 27.7048C102.391 26.6809 101.61 25.7831 100.678 25.0638L100.67 25.056ZM108.13 121.135C108.079 121.162 108.048 121.217 107.991 121.239L54.6485 149.479C53.8819 149.862 53.0881 150.188 52.2736 150.454C56.9621 157.559 63.1171 163.579 70.3251 168.109C77.533 172.638 85.6269 175.573 94.063 176.715C95.228 176.871 96.4125 176.795 97.5477 176.49C98.6829 176.185 99.7462 175.658 100.676 174.938C100.973 174.708 101.255 174.46 101.521 174.195C102.926 172.79 103.819 170.953 104.057 168.98L109.219 126.165C109.436 124.383 108.932 122.694 108.13 121.135Z" fill="#190C02"/>
</g>
<path d="M222.134 54.0491C223.315 54.0491 224.743 54.1476 226.418 54.3446C228.19 54.443 230.012 54.7385 231.883 55.2309L227.452 103.093L227.156 103.24C225.679 102.649 223.906 102.108 221.838 101.615C219.77 101.025 217.259 100.729 214.304 100.729C212.138 100.729 209.824 101.025 207.362 101.615C204.899 102.206 202.782 103.24 201.009 104.718C199.335 106.195 198.498 108.312 198.498 111.07V148.148L156.693 148V79.4572C156.693 76.0104 156.644 72.3173 156.545 68.3781C156.447 64.3404 156.151 60.3519 155.659 56.4127H190.078C192.048 60.0565 193.328 64.1927 193.919 68.8213C194.608 73.4499 195.002 77.783 195.101 81.8208H196.282C196.282 80.442 196.627 78.2754 197.316 75.321C198.104 72.2681 199.434 69.1167 201.305 65.8668C203.275 62.617 205.934 59.8595 209.282 57.5944C212.63 55.2309 216.914 54.0491 222.134 54.0491ZM326.342 115.944C325.456 127.565 320.876 136.232 312.604 141.943C304.331 147.557 293.4 150.364 279.81 150.364C266.121 150.364 255.14 147.557 246.868 141.943C238.694 136.232 234.164 127.565 233.277 115.944C233.179 114.27 233.031 112.153 232.834 109.592C232.736 106.933 232.687 104.225 232.687 101.468C232.687 98.6118 232.736 96.0513 232.834 93.7862C233.031 91.5211 233.179 89.5023 233.277 87.7296C234.164 76.2073 238.743 67.738 247.015 62.3215C255.288 56.8066 266.219 54.0491 279.81 54.0491C293.4 54.0491 304.331 56.8066 312.604 62.3215C320.876 67.8365 325.456 76.3058 326.342 87.7296C326.637 91.078 326.785 95.4604 326.785 100.877C326.785 103.733 326.736 106.539 326.637 109.297C326.637 111.956 326.539 114.172 326.342 115.944ZM283.798 111.365V91.7181C283.798 91.4227 283.601 90.6841 283.207 89.5023C282.912 88.3205 281.779 87.7296 279.81 87.7296C277.84 87.7296 276.658 88.3205 276.264 89.5023C275.969 90.6841 275.821 91.4227 275.821 91.7181V111.365C275.821 111.759 275.969 112.547 276.264 113.729C276.658 114.812 277.84 115.354 279.81 115.354C281.779 115.354 282.912 114.812 283.207 113.729C283.601 112.547 283.798 111.759 283.798 111.365ZM332.394 52.4242V29.2319H374.938V52.4242H332.394ZM374.938 148H332.394V56.4127H374.938V148ZM460.765 96.7406C456.432 94.0816 451.754 92.112 446.731 90.8318C441.807 89.5515 435.899 88.6652 429.005 88.1728C428.316 88.1728 427.725 88.1728 427.232 88.1728C426.74 88.0743 426.247 88.0251 425.755 88.0251C423.982 88.0251 423.096 88.7144 423.096 90.0932C423.096 90.881 423.588 91.4227 424.573 91.7181C425.558 91.9151 426.838 92.1613 428.414 92.4567C432.452 92.8506 436.736 93.4415 441.266 94.2294C445.796 94.9187 450.031 96.199 453.97 98.0701C457.909 99.9413 461.11 102.797 463.572 106.638C466.034 110.38 467.265 115.501 467.265 122.001C467.265 127.417 466.034 131.948 463.572 135.591C461.11 139.235 457.712 142.14 453.379 144.307C449.144 146.375 444.319 147.852 438.902 148.739C433.486 149.723 427.823 150.216 421.914 150.216C414.43 150.216 406.896 149.625 399.313 148.443C391.828 147.36 385.23 146.178 379.518 144.898L383.064 103.684C384.935 104.964 387.2 106.441 389.859 108.115C392.616 109.691 396.26 111.168 400.79 112.547C405.32 113.926 411.328 114.96 418.812 115.649C419.206 115.747 419.551 115.797 419.846 115.797C420.24 115.797 420.634 115.797 421.028 115.797C422.801 115.797 423.687 115.157 423.687 113.876C423.687 112.99 423.293 112.399 422.505 112.104C421.717 111.808 420.486 111.562 418.812 111.365C414.38 110.774 409.949 110.036 405.517 109.149C401.184 108.263 397.196 106.884 393.552 105.013C389.908 103.142 386.954 100.532 384.688 97.1838C382.522 93.737 381.439 89.3053 381.439 83.8889C381.439 76.5028 383.26 70.6432 386.904 66.31C390.647 61.9768 395.669 58.8747 401.972 57.0035C408.275 55.0339 415.267 54.0491 422.948 54.0491C429.547 54.0491 436.391 54.5908 443.482 55.6741C450.572 56.6589 457.564 57.9884 464.458 59.6625L460.765 96.7406ZM550.927 96.7406C546.594 94.0816 541.916 92.112 536.894 90.8318C531.969 89.5515 526.061 88.6652 519.167 88.1728C518.478 88.1728 517.887 88.1728 517.394 88.1728C516.902 88.0743 516.409 88.0251 515.917 88.0251C514.144 88.0251 513.258 88.7144 513.258 90.0932C513.258 90.881 513.75 91.4227 514.735 91.7181C515.72 91.9151 517 92.1613 518.576 92.4567C522.614 92.8506 526.898 93.4415 531.428 94.2294C535.958 94.9187 540.193 96.199 544.132 98.0701C548.071 99.9413 551.272 102.797 553.734 106.638C556.196 110.38 557.427 115.501 557.427 122.001C557.427 127.417 556.196 131.948 553.734 135.591C551.272 139.235 547.874 142.14 543.541 144.307C539.306 146.375 534.481 147.852 529.064 148.739C523.648 149.723 517.985 150.216 512.076 150.216C504.592 150.216 497.058 149.625 489.475 148.443C481.99 147.36 475.392 146.178 469.68 144.898L473.226 103.684C475.097 104.964 477.362 106.441 480.021 108.115C482.778 109.691 486.422 111.168 490.952 112.547C495.482 113.926 501.49 114.96 508.974 115.649C509.368 115.747 509.713 115.797 510.008 115.797C510.402 115.797 510.796 115.797 511.19 115.797C512.963 115.797 513.849 115.157 513.849 113.876C513.849 112.99 513.455 112.399 512.667 112.104C511.879 111.808 510.648 111.562 508.974 111.365C504.543 110.774 500.111 110.036 495.679 109.149C491.346 108.263 487.358 106.884 483.714 105.013C480.07 103.142 477.116 100.532 474.85 97.1838C472.684 93.737 471.601 89.3053 471.601 83.8889C471.601 76.5028 473.423 70.6432 477.066 66.31C480.809 61.9768 485.831 58.8747 492.134 57.0035C498.437 55.0339 505.429 54.0491 513.11 54.0491C519.709 54.0491 526.553 54.5908 533.644 55.6741C540.734 56.6589 547.726 57.9884 554.62 59.6625L550.927 96.7406ZM651.577 148H613.761C613.367 146.129 613.022 144.208 612.727 142.239C612.53 140.171 612.431 137.709 612.431 134.853H611.102C611.102 136.921 610.363 139.186 608.886 141.648C607.507 144.012 605.242 146.08 602.091 147.852C598.939 149.526 594.705 150.364 589.387 150.364C582.099 150.364 576.338 149.133 572.103 146.67C567.868 144.208 564.865 141.057 563.092 137.216C561.32 133.277 560.433 129.042 560.433 124.512V117.422C560.433 107.967 563.388 101.074 569.296 96.7406C575.205 92.4075 585.201 90.2409 599.284 90.2409C601.254 90.2409 603.223 90.2901 605.193 90.3886C607.261 90.4871 609.427 90.6348 611.693 90.8318C611.889 89.1576 611.594 87.9266 610.806 87.1387C610.117 86.3509 609.231 85.9077 608.147 85.8092C606.276 85.6123 604.454 85.4646 602.682 85.3661C601.007 85.1691 599.333 85.0706 597.659 85.0706C589.781 85.0706 583.133 86.0062 577.717 87.8773C572.399 89.7485 568.213 91.5704 565.16 93.343L562.501 61.4352C571.168 58.8747 579.243 57.0035 586.728 55.8218C594.311 54.64 601.254 54.0491 607.556 54.0491C621.147 54.0491 631.635 56.8066 639.021 62.3215C646.506 67.738 650.248 75.6657 650.248 86.1047V130.864C650.543 136.675 650.986 142.387 651.577 148ZM608.738 120.228V110.922C608.738 110.528 608.541 109.789 608.147 108.706C607.852 107.524 606.719 106.933 604.75 106.933C602.78 106.933 601.598 107.524 601.204 108.706C600.909 109.789 600.761 110.528 600.761 110.922V120.228C600.761 120.524 600.909 121.262 601.204 122.444C601.598 123.626 602.78 124.217 604.75 124.217C606.719 124.217 607.852 123.626 608.147 122.444C608.541 121.262 608.738 120.524 608.738 120.228ZM719.924 54.0491C727.31 54.0491 733.12 54.9847 737.355 56.8558C741.59 58.727 744.692 61.3367 746.662 64.6851C748.73 67.9349 750.059 71.7265 750.65 76.0596C751.241 80.3928 751.536 85.0214 751.536 89.9454V148L708.254 148.148V93.343C708.254 93.0476 708.057 92.309 707.663 91.1272C707.368 89.9454 706.235 89.3546 704.265 89.3546C702.296 89.3546 701.114 89.9454 700.72 91.1272C700.425 92.309 700.277 93.0476 700.277 93.343V148H656.551V88.616C656.551 85.4646 656.551 80.8852 656.551 74.8778C656.65 68.8705 656.305 62.7154 655.517 56.4127H693.039C694.22 62.617 694.811 69.0182 694.811 75.6165H696.141C696.141 71.7757 696.929 68.2304 698.504 64.9805C700.08 61.7306 702.591 59.1209 706.038 57.1513C709.583 55.0832 714.212 54.0491 719.924 54.0491ZM816.621 112.399L819.724 148.295C816.178 148.985 812.731 149.477 809.383 149.773C806.035 150.167 802.834 150.364 799.781 150.364C792.789 150.364 786.585 149.329 781.168 147.261C775.752 145.095 771.517 141.303 768.464 135.887C765.411 130.372 763.885 122.641 763.885 112.695V88.3205H755.908V56.4127H764.18L766.544 44.4472L806.429 40.4587V56.4127H817.065V88.3205H806.429V103.093C806.429 106.736 807.118 109.248 808.497 110.626C809.875 111.907 811.796 112.547 814.258 112.547C814.553 112.547 814.898 112.547 815.292 112.547C815.784 112.547 816.228 112.498 816.621 112.399Z" fill="#190C02"/>
</g>
<defs>
<clipPath id="clip0_1_6">
<rect width="861" height="201" fill="white"/>
</clipPath>
<clipPath id="clip1_1_6">
<rect width="142" height="142" fill="white" transform="translate(0 100) rotate(-45)"/>
</clipPath>
</defs>
</svg>
